<?xml version="1.0" encoding="utf-8"?><svg viewBox="0 0 30 30" xmlns="http://www.w3.org/2000/svg" xmlns:xlink="http://www.w3.org/1999/xlink"><style>:root>svg{display:none}:root>svg:target{display:block}</style><svg viewBox="0 0 30 30" id="burger" xmlns="http://www.w3.org/2000/svg"><path d="M28.5 25.5H15.214a1.5 1.5 0 000 3H28.5a1.5 1.5 0 000-3zm-27-21h27a1.5 1.5 0 000-3h-27a1.5 1.5 0 000 3zm27 9H8.143a1.5 1.5 0 000 3H28.5a1.5 1.5 0 000-3z"/></svg><svg viewBox="0 0 30 30" id="cross" xmlns="http://www.w3.org/2000/svg"><path d="M14.5 12.619L6.434 4.553a1.34 1.34 0 00-1.897 0 1.34 1.34 0 000 1.898l8.066 8.066-8.066 8.066a1.34 1.34 0 101.897 1.897l8.066-8.066 8.066 8.066a1.34 1.34 0 002.29-.949c0-.343-.13-.687-.392-.948l-8.066-8.066 8.066-8.066a1.338 1.338 0 000-1.898 1.34 1.34 0 00-1.898 0L14.5 12.62z"/></svg><svg viewBox="0 0 48 48" id="telegram" xmlns="http://www.w3.org/2000/svg"><path d="M5.83 23.616c12.568-5.529 28.832-12.27 31.077-13.203 5.889-2.442 7.696-1.974 6.795 3.434-.647 3.887-2.514 16.756-4.002 24.766-.883 4.75-2.864 5.313-5.979 3.258-1.498-.989-9.059-5.989-10.7-7.163-1.498-1.07-3.564-2.357-.973-4.892.922-.903 6.966-6.674 11.675-11.166.617-.59-.158-1.559-.87-1.086-6.347 4.209-15.147 10.051-16.267 10.812-1.692 1.149-3.317 1.676-6.234.838-2.204-.633-4.357-1.388-5.195-1.676-3.227-1.108-2.461-2.543.673-3.922z"/></svg><svg viewBox="0 0 48 48" id="vk" xmlns="http://www.w3.org/2000/svg"><path d="M45.763 35.202c-1.797-3.234-6.426-7.12-8.337-8.811a1.242 1.242 0 01-.103-1.776c3.647-3.919 6.564-8.422 7.568-11.143.443-1.202-.474-2.472-1.766-2.472h-3.753c-1.237 0-1.961.444-2.306 1.151-3.031 6.211-5.631 8.899-7.451 10.47-1.019.88-2.608.151-2.608-1.188v-8.28a2.084 2.084 0 00-2.095-2.075L18.056 11c-.863 0-1.356.977-.838 1.662l1.132 1.625c.426.563.656 1.248.656 1.951L19 23.556c0 1.273-1.543 1.895-2.459 1.003-3.099-3.018-5.788-9.181-6.756-12.128A2.087 2.087 0 007.8 11l-3.697-.009c-1.387 0-2.401 1.315-2.024 2.639C5.457 25.487 12.388 36.767 24.74 37.99c1.217.12 2.267-.86 2.267-2.073v-3.846c0-1.103.865-2.051 1.977-2.079l.117-.001c3.267 0 6.926 4.755 8.206 6.979a2.07 2.07 0 001.8 1.03h4.973c1.451 0 2.382-1.539 1.683-2.798z"/></svg><svg viewBox="0 0 24 24" id="whatsapp" xmlns="http://www.w3.org/2000/svg"><path d="M19.077 4.928c-2.082-2.083-4.922-3.134-7.904-2.894-4.009.322-7.523 3.11-8.699 6.956-.84 2.748-.487 5.617.881 7.987L2.059 21.28a.551.551 0 00.67.691l4.504-1.207a9.98 9.98 0 004.773 1.216h.004c4.195 0 8.071-2.566 9.412-6.541 1.306-3.876.34-7.823-2.345-10.511zm-2.179 10.626c-.208.583-1.227 1.145-1.685 1.186-.458.042-.887.207-2.995-.624-2.537-1-4.139-3.601-4.263-3.767-.125-.167-1.019-1.353-1.019-2.581s.645-1.832.874-2.081a.916.916 0 01.666-.312c.166 0 .333 0 .478.006.178.007.375.016.562.431.222.494.707 1.728.769 1.853s.104.271.021.437-.125.27-.249.416c-.125.146-.262.325-.374.437-.125.124-.255.26-.11.509.146.25.646 1.067 1.388 1.728.954.85 1.757 1.113 2.007 1.239.25.125.395.104.541-.063.146-.166.624-.728.79-.978s.333-.208.562-.125 1.456.687 1.705.812c.25.125.416.187.478.291.062.103.062.603-.146 1.186z"/></svg></svg>